<?xml version="1.0" encoding="UTF-8"?>
<svg version="1.1" xmlns="http://www.w3.org/2000/svg" width="512" height="512">
<path d="M0 0 C147.84 0 295.68 0 448 0 C448 31.68 448 63.36 448 96 C442.72 96 437.44 96 432 96 C432.33 142.86 432.66 189.72 433 238 C437.62 233.38 442.24 228.76 447 224 C450.23387334 225.61693667 451.72002588 226.47195593 454.11621094 228.88916016 C454.98666046 229.75983627 454.98666046 229.75983627 455.87469482 230.64810181 C456.48838928 231.27211884 457.10208374 231.89613586 457.734375 232.5390625 C458.37240051 233.17991791 459.01042603 233.82077332 459.66778564 234.48104858 C461.69994069 236.52437821 463.72502218 238.57455982 465.75 240.625 C467.1284453 242.0134786 468.50734636 243.4015049 469.88671875 244.7890625 C473.26311894 248.18748697 476.63319288 251.59207254 480 255 C478.59490901 258.18259851 476.93078658 260.31348466 474.46826172 262.75878906 C473.74766571 263.47923401 473.0270697 264.19967896 472.28463745 264.94195557 C471.50750397 265.70876648 470.73037048 266.47557739 469.9296875 267.265625 C469.13345978 268.05902283 468.33723206 268.85242065 467.51687622 269.66986084 C464.97424052 272.20130703 462.42473652 274.72570803 459.875 277.25 C458.14928247 278.96568617 456.42401645 280.68182662 454.69921875 282.3984375 C450.47218953 286.60512491 446.23594593 290.80221574 442 295 C449.26 295.33 456.52 295.66 464 296 C464 303.92 464 311.84 464 320 C469.28 320 474.56 320 480 320 C480 372.8 480 425.6 480 480 C395.52 480 311.04 480 224 480 C224 443.04 224 406.08 224 368 C155.36 368 86.72 368 16 368 C16 278.24 16 188.48 16 96 C10.72 96 5.44 96 0 96 C0 64.32 0 32.64 0 0 Z " fill="#D7913E" transform="translate(16,16)"/>
<path d="M0 0 C18.81 0 37.62 0 57 0 C57 31.68 57 63.36 57 96 C51.72 96 46.44 96 41 96 C41.33 142.86 41.66 189.72 42 238 C46.62 233.38 51.24 228.76 56 224 C59.23387334 225.61693667 60.72002588 226.47195593 63.11621094 228.88916016 C63.98666046 229.75983627 63.98666046 229.75983627 64.87469482 230.64810181 C65.48838928 231.27211884 66.10208374 231.89613586 66.734375 232.5390625 C67.37240051 233.17991791 68.01042603 233.82077332 68.66778564 234.48104858 C70.69994069 236.52437821 72.72502218 238.57455982 74.75 240.625 C76.1284453 242.0134786 77.50734636 243.4015049 78.88671875 244.7890625 C82.26311894 248.18748697 85.63319288 251.59207254 89 255 C87.59490901 258.18259851 85.93078658 260.31348466 83.46826172 262.75878906 C82.74766571 263.47923401 82.0270697 264.19967896 81.28463745 264.94195557 C80.50750397 265.70876648 79.73037048 266.47557739 78.9296875 267.265625 C78.13345978 268.05902283 77.33723206 268.85242065 76.51687622 269.66986084 C73.97424052 272.20130703 71.42473652 274.72570803 68.875 277.25 C67.14928247 278.96568617 65.42401645 280.68182662 63.69921875 282.3984375 C59.47218953 286.60512491 55.23594593 290.80221574 51 295 C58.26 295.33 65.52 295.66 73 296 C73 303.92 73 311.84 73 320 C78.28 320 83.56 320 89 320 C89 372.8 89 425.6 89 480 C4.52 480 -79.96 480 -167 480 C-167 443.04 -167 406.08 -167 368 C-235.64 368 -304.28 368 -375 368 C-375 344.9 -375 321.8 -375 298 C-365.595 299.485 -365.595 299.485 -356 301 C-299.34311384 307.5929295 -242.18014464 300.57923323 -190 277 C-188.55173828 276.34596191 -188.55173828 276.34596191 -187.07421875 275.67871094 C-175.86708315 270.56572787 -164.99751326 265.15263763 -154.5703125 258.58203125 C-152 257 -152 257 -151 257 C-151 277.79 -151 298.58 -151 320 C-114.04 320 -77.08 320 -39 320 C-39 293.6 -39 267.2 -39 240 C-67.71 240 -96.42 240 -126 240 C-122.40877887 236.40877887 -118.83040776 233.09873126 -114.9375 229.875 C-102.14170053 219.15064044 -89.71087993 207.84064949 -79 195 C-78.54786133 194.46165527 -78.09572266 193.92331055 -77.62988281 193.36865234 C-30.82112597 137.452377 -7.19479346 71.94793456 0 0 Z " fill="#BC7F35" transform="translate(407,16)"/>
<path d="M0 0 C0 20.79 0 41.58 0 63 C22.82687673 63.02743907 45.65315098 63.02594982 68.47996616 62.97153378 C79.07893732 62.94719658 89.67762258 62.93589668 100.27661133 62.95532227 C109.51508523 62.97222122 118.75315925 62.96462417 127.99158043 62.92765242 C132.8830824 62.90893124 137.7739081 62.90244946 142.66540718 62.92530632 C147.27125098 62.94644124 151.8758567 62.93477938 156.48159218 62.89815521 C158.17021317 62.89047293 159.85893754 62.89468832 161.54748917 62.91181374 C170.42965988 63.269926 170.42965988 63.269926 178.56223869 60.38260078 C180.26845478 58.67346457 181.63483369 56.98249226 183 55 C183.33 55 183.66 55 184 55 C184 57.64 184 60.28 184 63 C191.26 63 198.52 63 206 63 C199.99888933 90.00499799 188.92127751 111.91031983 171 133 C170.39285156 133.73089844 169.78570312 134.46179688 169.16015625 135.21484375 C165.13629981 139.96865147 160.77035952 144.00830741 156 148 C155.12601562 148.76183594 154.25203125 149.52367187 153.3515625 150.30859375 C112.8910881 185.07422926 60.96836688 198.98703935 8.5625 199.125 C7.51216583 199.12915421 7.51216583 199.12915421 6.44061279 199.13339233 C4.39915831 199.13928247 2.35786172 199.13735203 0.31640625 199.1328125 C-0.87525146 199.13168457 -2.06690918 199.13055664 -3.29467773 199.12939453 C-7.54389433 198.98100652 -11.77419843 198.46953351 -16 198 C-16 169.29 -16 140.58 -16 111 C-84.64 111 -153.28 111 -224 111 C-224 87.9 -224 64.8 -224 41 C-217.73 41.99 -211.46 42.98 -205 44 C-148.34311384 50.5929295 -91.18014464 43.57923323 -39 20 C-38.03449219 19.56397461 -37.06898438 19.12794922 -36.07421875 18.67871094 C-24.86708315 13.56572787 -13.99751326 8.15263763 -3.5703125 1.58203125 C-1 0 -1 0 0 0 Z " fill="#D7913E" transform="translate(256,273)"/>
<path d="M0 0 C129.03 0 258.06 0 391 0 C391 6.35682366 390.93235575 11.80138016 390.1171875 17.97265625 C390.02274857 18.68975266 389.92830963 19.40684906 389.83100891 20.14567566 C389.52224238 22.45276961 389.20066825 24.75773405 388.875 27.0625 C388.76362701 27.85756958 388.65225403 28.65263916 388.5375061 29.47180176 C380.45546865 86.54453135 380.45546865 86.54453135 371 96 C369.02963351 96.0977669 367.0556981 96.12371274 365.08290768 96.12304783 C363.78857687 96.12503888 362.49424606 96.12702993 361.16069311 96.12908131 C359.70551215 96.12622771 358.25033137 96.1232821 356.79515076 96.12025452 C355.26398659 96.12069008 353.73282248 96.12156472 352.20165879 96.12284368 C347.97392482 96.12509149 343.74621595 96.12106347 339.51848519 96.11606562 C334.96699466 96.11176538 330.41550566 96.11320724 325.86401367 96.1139679 C317.9715332 96.1144934 310.07906097 96.11134382 302.18658257 96.10573006 C290.77524575 96.09761867 279.36391293 96.09500021 267.95257355 96.09374207 C249.44046669 96.09155098 230.92836423 96.08488935 212.41625977 96.07543945 C194.42862978 96.0662668 176.44100099 96.05918525 158.45336914 96.05493164 C157.3454565 96.05466892 156.23754387 96.05440619 155.09605812 96.05413551 C149.53823833 96.05283051 143.98041853 96.0515668 138.42259872 96.05032361 C92.28172858 96.03994922 46.14086656 96.02150997 0 96 C0 64.32 0 32.64 0 0 Z " fill="#DFA764" transform="translate(16,16)"/>
<path d="M0 0 C18.81 0 37.62 0 57 0 C57 31.68 57 63.36 57 96 C51.72 96 46.44 96 41 96 C41.10325844 98.62159813 41.10325844 98.62159813 41.20860291 101.29615784 C41.84148991 117.89889605 42.305638 134.49865721 42.60617733 151.11077976 C42.76481771 159.64909319 42.98096113 168.17821561 43.33862305 176.71069336 C45.89197745 238.79648283 45.89197745 238.79648283 31.94004536 254.95102978 C25.47337821 261.71094471 18.12572775 267.38162833 10 272 C9.67 272 9.34 272 9 272 C9 250.88 9 229.76 9 208 C-17.4 208 -43.8 208 -71 208 C-71 218.56 -71 229.12 -71 240 C-89.15 240 -107.3 240 -126 240 C-122.40877887 236.40877887 -118.83040776 233.09873126 -114.9375 229.875 C-102.14170053 219.15064044 -89.71087993 207.84064949 -79 195 C-78.54786133 194.46165527 -78.09572266 193.92331055 -77.62988281 193.36865234 C-30.82112597 137.452377 -7.19479346 71.94793456 0 0 Z " fill="#BB7E34" transform="translate(407,16)"/>
<path d="M0 0 C0 20.79 0 41.58 0 63 C-5.28 63 -10.56 63 -16 63 C-16 78.84 -16 94.68 -16 111 C-84.64 111 -153.28 111 -224 111 C-224 87.9 -224 64.8 -224 41 C-217.73 41.99 -211.46 42.98 -205 44 C-148.34311384 50.5929295 -91.18014464 43.57923323 -39 20 C-38.03449219 19.56397461 -37.06898438 19.12794922 -36.07421875 18.67871094 C-24.86708315 13.56572787 -13.99751326 8.15263763 -3.5703125 1.58203125 C-1 0 -1 0 0 0 Z " fill="#BC7F35" transform="translate(256,273)"/>
<path d="M0 0 C26.4 0 52.8 0 80 0 C80.33 20.79 80.66 41.58 81 63 C85.805625 58.215 90.61125 53.43 95.5625 48.5 C97.06498291 47.00662109 98.56746582 45.51324219 100.11547852 43.97460938 C101.32848893 42.76452454 102.54131032 41.55425018 103.75390625 40.34375 C104.67181946 39.43351074 104.67181946 39.43351074 105.60827637 38.50488281 C109.39207342 34.72183755 112.97765936 30.81915312 116.46447754 26.76037598 C118.52163635 24.40197808 120.70811022 22.19509148 122.9375 20 C123.70964844 19.236875 124.48179687 18.47375 125.27734375 17.6875 C125.84582031 17.130625 126.41429687 16.57375 127 16 C129.85779017 17.29719924 131.91008536 18.6636826 134.11621094 20.88916016 C134.98666046 21.75983627 134.98666046 21.75983627 135.87469482 22.64810181 C136.79523651 23.58412735 136.79523651 23.58412735 137.734375 24.5390625 C138.37240051 25.17991791 139.01042603 25.82077332 139.66778564 26.48104858 C141.69994069 28.52437821 143.72502218 30.57455982 145.75 32.625 C147.1284453 34.0134786 148.50734636 35.4015049 149.88671875 36.7890625 C153.26311894 40.18748697 156.63319288 43.59207254 160 47 C158.59927023 50.16595997 156.94833306 52.30012826 154.50341797 54.73950195 C153.43122513 55.81630974 153.43122513 55.81630974 152.33737183 56.91487122 C151.17650558 58.06495918 151.17650558 58.06495918 149.9921875 59.23828125 C149.19273712 60.03727341 148.39328674 60.83626556 147.5696106 61.6594696 C145.87559405 63.35046528 144.17914797 65.03903004 142.48046875 66.7253418 C139.9005362 69.28714326 137.32857039 71.85672977 134.7578125 74.42773438 C133.10723946 76.07338683 131.45621198 77.71858364 129.8046875 79.36328125 C129.04292206 80.12393387 128.28115662 80.88458649 127.49630737 81.66828918 C124.05527212 85.07940342 120.59757418 88.37298338 116.88305664 91.48535156 C114.0585011 93.90133491 111.8635264 96.37237411 109.66235352 99.36499023 C104.93585467 105.50875768 100.23130515 110.92206853 92.48358154 112.89581299 C82.6308504 114.12173028 72.84054584 113.54349292 62.9375 113.0625 C47.6234375 112.5365625 47.6234375 112.5365625 32 112 C32 85.6 32 59.2 32 32 C21.44 32 10.88 32 0 32 C0 21.44 0 10.88 0 0 Z " fill="#DC5F29" transform="translate(336,224)"/>
<path d="M0 0 C36.96 0 73.92 0 112 0 C112 26.4 112 52.8 112 80 C75.04 80 38.08 80 0 80 C0 53.6 0 27.2 0 0 Z " fill="#A9DDF3" transform="translate(256,256)"/>
<path d="M0 0 C1.02880783 -0.00852997 2.05761566 -0.01705994 3.11759949 -0.02584839 C4.23562454 -0.02494202 5.3536496 -0.02403564 6.5055542 -0.02310181 C7.69151688 -0.02981903 8.87747955 -0.03653625 10.09938049 -0.04345703 C13.345493 -0.05918438 16.59145182 -0.06581125 19.83759785 -0.0670886 C21.86909638 -0.06851283 23.90056833 -0.07278763 25.93206024 -0.07808304 C33.02932937 -0.09657604 40.1265235 -0.10475488 47.22381592 -0.10317993 C53.82276657 -0.10197984 60.42138946 -0.12305768 67.02025723 -0.15466726 C72.69859889 -0.18089072 78.37683394 -0.19154464 84.05523562 -0.19026911 C87.44090478 -0.1897611 90.82628273 -0.19535368 94.21189117 -0.21662521 C97.99364703 -0.23627406 101.7745654 -0.23044998 105.55633545 -0.21841431 C106.66626358 -0.22965332 107.77619171 -0.24089233 108.91975403 -0.25247192 C116.87438675 -0.18831265 123.19868311 1.2026967 129.34832764 6.45101929 C129.9683667 7.19480835 130.58840576 7.93859741 131.22723389 8.70492554 C132.18436279 9.81674194 132.18436279 9.81674194 133.16082764 10.95101929 C137.24627895 16.76078578 137.53941088 22.35900966 136.78973389 29.26742554 C135.06242608 35.804303 131.37060098 41.39293867 125.78973389 45.26742554 C118.99981008 48.41814359 113.14030267 48.70161416 105.71746826 48.67147827 C103.93545769 48.68177315 103.93545769 48.68177315 102.1174469 48.692276 C98.87976889 48.70737573 95.64245457 48.70905637 92.40475655 48.70333362 C89.6935965 48.70022938 86.98248783 48.70634772 84.27133512 48.71237236 C77.87231333 48.72638603 71.47342513 48.72488217 65.07440186 48.71347046 C58.48955292 48.70198633 51.90511115 48.71607668 45.32031584 48.74286693 C39.64955909 48.76506807 33.97892974 48.7716516 28.30813265 48.76579052 C24.92870604 48.76243095 21.54954049 48.76476906 18.17015076 48.78204155 C14.40046002 48.79694392 10.63166259 48.78627872 6.86199951 48.76913452 C5.1987841 48.78363647 5.1987841 48.78363647 3.50196838 48.7984314 C-4.33557416 48.72391749 -9.61954042 47.40218606 -15.67120361 42.11898804 C-21.61626405 35.20330549 -23.74727216 30.19360821 -23.51104736 21.00570679 C-22.65597797 13.22124384 -18.2421695 8.92136554 -12.52667236 3.93148804 C-8.48914819 1.03100693 -4.94214551 0.01859625 0 0 Z " fill="#DCD8D0" transform="translate(183.21026611328125,159.73257446289063)"/>
<path d="M0 0 C18.81 0 37.62 0 57 0 C57 31.68 57 63.36 57 96 C31.59 96 6.18 96 -20 96 C-17.36 87.75 -14.72 79.5 -12 71 C-5.69282017 47.62633356 -2.40632835 24.06328351 0 0 Z " fill="#D8923E" transform="translate(407,16)"/>
<path d="M0 0 C2.85779017 1.29719924 4.91008536 2.6636826 7.11621094 4.88916016 C7.69651062 5.4696109 8.2768103 6.05006165 8.87469482 6.64810181 C9.48838928 7.27211884 10.10208374 7.89613586 10.734375 8.5390625 C11.37240051 9.17991791 12.01042603 9.82077332 12.66778564 10.48104858 C14.69994069 12.52437821 16.72502218 14.57455982 18.75 16.625 C20.1284453 18.0134786 21.50734636 19.4015049 22.88671875 20.7890625 C26.26311894 24.18748697 29.63319288 27.59207254 33 31 C31.59927023 34.16595997 29.94833306 36.30012826 27.50341797 38.73950195 C26.78862274 39.45737381 26.07382751 40.17524567 25.33737183 40.91487122 C24.563461 41.68159653 23.78955017 42.44832184 22.9921875 43.23828125 C22.19273712 44.03727341 21.39328674 44.83626556 20.5696106 45.6594696 C18.87559405 47.35046528 17.17914797 49.03903004 15.48046875 50.7253418 C12.9005362 53.28714326 10.32857039 55.85672977 7.7578125 58.42773438 C6.10723946 60.07338683 4.45621198 61.71858364 2.8046875 63.36328125 C2.04292206 64.12393387 1.28115662 64.88458649 0.49630737 65.66828918 C-2.94425335 69.07893302 -6.40162935 72.37264493 -10.11499023 75.48535156 C-12.94009978 77.90210523 -15.14524197 80.37762646 -17.35522461 83.36499023 C-22.07254177 89.46876468 -26.76995132 94.90967098 -34.47540283 96.89581299 C-43.43135618 98.02560379 -52.37919424 97.64397769 -61.3717041 97.16729736 C-65.05795108 96.99096466 -68.74626769 96.91525284 -72.43554688 96.83007812 C-79.62923296 96.64964159 -86.81286604 96.3610253 -94 96 C-89.81283111 91.00224815 -85.44793272 86.31296244 -80.82055664 81.72290039 C-80.12866745 81.03247147 -79.43677826 80.34204254 -78.72392273 79.63069153 C-77.2322225 78.14277509 -75.73936889 76.65601423 -74.24547005 75.17030525 C-71.8757143 72.81340109 -69.50917341 70.45331041 -67.14341736 68.09239197 C-61.26830756 62.23059925 -55.38776743 56.37426397 -49.50738525 50.51776123 C-44.53182718 45.56199427 -39.55836212 40.60414442 -34.58761406 35.64355278 C-32.26603569 33.32841534 -29.94144528 31.01633224 -27.61671448 28.70436096 C-26.18060621 27.27188846 -24.74463997 25.83927354 -23.30883789 24.40649414 C-22.67017792 23.77300049 -22.03151794 23.13950684 -21.37350464 22.48681641 C-17.59523766 18.70898839 -14.01491247 14.81145305 -10.53331661 10.75817013 C-8.47705333 8.40036572 -6.29114755 6.19436066 -4.0625 4 C-3.29035156 3.236875 -2.51820313 2.47375 -1.72265625 1.6875 C-1.15417969 1.130625 -0.58570313 0.57375 0 0 Z " fill="#545622" transform="translate(463,240)"/>
<path d="M0 0 C28.05 0 56.1 0 85 0 C78.38691639 19.83925083 60.01956787 36.1050751 41.75170898 45.35644531 C35.44790502 48.37555565 28.9751594 50.89222131 22.3125 53 C21.37108154 53.31203369 21.37108154 53.31203369 20.41064453 53.63037109 C13.32226928 55.68468559 7.96930362 55 0 55 C0 36.85 0 18.7 0 0 Z " fill="#D3EDF8" transform="translate(256,256)"/>
<path d="M0 0 C0.70266495 -0.0049649 1.4053299 -0.00992981 2.12928772 -0.01504517 C4.45957411 -0.0296782 6.78979235 -0.03647172 9.12011719 -0.04199219 C10.73956301 -0.04774404 12.35900881 -0.05350177 13.97845459 -0.05926514 C17.37805499 -0.06977928 20.77763172 -0.0756188 24.17724609 -0.07910156 C28.52622633 -0.08457797 32.87489215 -0.10858578 37.22377396 -0.13707352 C40.57129823 -0.15573287 43.9187474 -0.16090731 47.26631927 -0.16243744 C48.86904361 -0.16545859 50.47176679 -0.17346898 52.07444 -0.18662262 C54.32200212 -0.20374762 56.56880471 -0.20178721 58.81640625 -0.1953125 C60.09388733 -0.19895813 61.37136841 -0.20260376 62.68756104 -0.20635986 C67.13552458 0.26342786 70.52368608 1.62712022 73.81152344 4.69628906 C78.00063771 10.17436157 78.78851621 13.347388 78.16699219 20.16113281 C76.34164627 25.43435434 73.55980016 27.95804367 69.16699219 31.16113281 C65.67547407 32.32497219 62.90560784 32.30961657 59.22045898 32.33813477 C58.51764801 32.34470596 57.81483704 32.35127716 57.09072876 32.35804749 C54.76588836 32.37775073 52.44111246 32.38943626 50.11621094 32.39941406 C48.92350554 32.40552735 48.92350554 32.40552735 47.70670509 32.41176414 C43.49823899 32.432612 39.28980538 32.44691937 35.08129883 32.45629883 C30.74010065 32.46736192 26.39941522 32.50176391 22.05839825 32.54147053 C18.71516482 32.56764506 15.37205345 32.57599137 12.02872658 32.57958031 C10.42877552 32.58444396 8.82882983 32.59605176 7.22897911 32.6146183 C4.98614491 32.63902938 2.74463602 32.63804198 0.50170898 32.63110352 C-1.40998833 32.63990288 -1.40998833 32.63990288 -3.36030579 32.64888 C-8.61003609 31.91154602 -11.65460073 29.46693526 -15.14550781 25.59863281 C-18.28986717 21.05678041 -18.49338865 16.51755516 -17.83300781 11.16113281 C-13.76027023 3.16649979 -8.66892759 0.04645023 0 0 Z " fill="#DCD8D0" transform="translate(337.8330078125,367.8388671875)"/>
<path d="M0 0 C0 7.92 0 15.84 0 24 C-13.2 24 -26.4 24 -40 24 C-40 14.66626672 -39.92704097 13.00402908 -34.0625 6.9375 C-33.10234985 5.94157837 -33.10234985 5.94157837 -32.12280273 4.92553711 C-22.83854826 -3.39345388 -11.67424824 -0.94656067 0 0 Z " fill="#A8DCF1" transform="translate(480,312)"/>
<path d="M0 0 C0.33 0 0.66 0 1 0 C1 2.64 1 5.28 1 8 C-1.64 8 -4.28 8 -7 8 C-6.02133662 6.85373678 -5.04205413 5.70800212 -4.0625 4.5625 C-3.51722656 3.92441406 -2.97195313 3.28632813 -2.41015625 2.62890625 C-1.63204305 1.73008851 -0.84063472 0.84063472 0 0 Z " fill="#B07A33" transform="translate(439,328)"/>
</svg>
